<?xml version="1.0" encoding="UTF-8" standalone="no"?>
<!-- Created with Inkscape (http://www.inkscape.org/) -->

<svg
   xmlns:dc="http://purl.org/dc/elements/1.1/"
   xmlns:cc="http://creativecommons.org/ns#"
   xmlns:rdf="http://www.w3.org/1999/02/22-rdf-syntax-ns#"
   xmlns:svg="http://www.w3.org/2000/svg"
   xmlns="http://www.w3.org/2000/svg"
   xmlns:sodipodi="http://sodipodi.sourceforge.net/DTD/sodipodi-0.dtd"
   xmlns:inkscape="http://www.inkscape.org/namespaces/inkscape"
   width="100"
   height="100"
   viewBox="0 0 26.458332 26.458334"
   version="1.1"
   id="svg8"
   inkscape:version="0.92.2 5c3e80d, 2017-08-06"
   sodipodi:docname="chat.svg">
  <defs
     id="defs2" />
  <sodipodi:namedview
     id="base"
     pagecolor="#ffffff"
     bordercolor="#666666"
     borderopacity="1.0"
     inkscape:pageopacity="0.0"
     inkscape:pageshadow="2"
     inkscape:zoom="5.62"
     inkscape:cx="50"
     inkscape:cy="50"
     inkscape:document-units="mm"
     inkscape:current-layer="layer1"
     showgrid="false"
     units="px"
     inkscape:window-width="1440"
     inkscape:window-height="775"
     inkscape:window-x="0"
     inkscape:window-y="1"
     inkscape:window-maximized="1" />
  <metadata
     id="metadata5">
    <rdf:RDF>
      <cc:Work
         rdf:about="">
        <dc:format>image/svg+xml</dc:format>
        <dc:type
           rdf:resource="http://purl.org/dc/dcmitype/StillImage" />
        <dc:title></dc:title>
      </cc:Work>
    </rdf:RDF>
  </metadata>
  <g
     inkscape:label="Layer 1"
     inkscape:groupmode="layer"
     id="layer1"
     transform="translate(0,-270.54165)">
    <g
       id="g886"
       transform="matrix(0.29423026,0,0,0.29399285,-24.755799,243.35095)">
      <path
         inkscape:connector-curvature="0"
         id="path880"
         d="m 85.044647,181.49047 c -1.432775,-1.43277 -1.144403,-2.10456 2.898793,-6.75313 l 3.805939,-4.37578 -2.302153,-3.17803 c -2.717028,-3.75075 -5.309725,-11.61242 -5.309725,-16.10036 0,-7.44363 4.192069,-16.15118 10.4111,-21.62539 6.525579,-5.74405 17.667999,-9.77796 27.008549,-9.77796 13.90206,0 27.58236,7.73825 33.73434,19.0818 2.38949,4.40596 2.55137,5.16083 2.55137,11.89747 0,6.59462 -0.2055,7.61082 -2.47023,12.21519 -4.18356,8.5055 -13.42659,15.80362 -23.25858,18.36453 -5.77023,1.50296 -45.605131,1.71594 -47.069403,0.25166 z m 23.559363,-27.11796 c 3.84285,-3.02279 1.64928,-9.01656 -3.29984,-9.01656 -4.94913,0 -7.142696,5.99377 -3.29984,9.01656 1.0955,0.86173 2.58043,1.56677 3.29984,1.56677 0.71941,0 2.20433,-0.70504 3.29984,-1.56677 z m 16.21238,0.0254 c 1.99269,-1.85648 2.19408,-5.68081 0.40335,-7.65954 -1.75885,-1.94352 -5.86022,-1.80032 -7.79088,0.272 -2.06038,2.21156 -1.94477,4.81444 0.31416,7.07337 2.25893,2.25893 4.86182,2.37454 7.07337,0.31417 z m 16.05978,0.14725 c 2.12486,-1.72061 2.29524,-5.5121 0.34457,-7.66757 -2.03971,-2.25385 -5.93112,-2.02201 -7.89147,0.47016 -2.05752,2.61572 -1.97807,4.46917 0.28875,6.73599 2.20736,2.20736 4.8913,2.37798 7.25815,0.46142 z"
         style="opacity:1;fill:#800080;fill-opacity:1;stroke:none;stroke-width:0.75714278;stroke-linecap:butt;stroke-linejoin:miter;stroke-miterlimit:4;stroke-dasharray:2.27142843, 2.27142843;stroke-dashoffset:0;stroke-opacity:1;paint-order:stroke fill markers" />
      <path
         inkscape:connector-curvature="0"
         id="path882"
         d="m 163.94843,148.94673 c -0.19185,-0.9355 -0.56496,-3.06161 -0.82913,-4.72471 -1.2302,-7.74474 -7.94845,-17.02313 -16.37915,-22.6208 -9.43639,-6.26541 -24.17921,-8.86494 -35.38393,-6.23909 -2.70009,0.63278 -5.04541,1.01435 -5.21182,0.84794 -0.71448,-0.71447 2.5648,-7.48635 5.30235,-10.94961 7.55804,-9.56164 22.4503,-14.615828 35.81277,-12.154261 10.23415,1.885281 20.29232,9.062731 24.3648,17.386571 3.7677,7.70092 3.11685,17.71217 -1.60612,24.70468 l -2.52071,3.73199 3.29917,3.86172 c 4.912,5.74956 4.23962,7.85646 -2.50726,7.85646 -3.53268,0 -4.03229,-0.19576 -4.34097,-1.70089 z"
         style="opacity:1;fill:#ff7cff;fill-opacity:1;stroke:none;stroke-width:0.75714278;stroke-linecap:butt;stroke-linejoin:miter;stroke-miterlimit:4;stroke-dasharray:2.27142843, 2.27142843;stroke-dashoffset:0;stroke-opacity:1;paint-order:stroke fill markers" />
    </g>
  </g>
</svg>
